<svg width="39" height="24" viewBox="0 0 39 24" fill="none" xmlns="http://www.w3.org/2000/svg">
<path opacity="0.25" d="M6 23H2C1.73478 23 1.48043 22.8946 1.29289 22.7071C1.10536 22.5196 1 22.2652 1 22V14C1 13.7348 1.10536 13.4804 1.29289 13.2929C1.48043 13.1054 1.73478 13 2 13H6C6.26522 13 6.51957 13.1054 6.70711 13.2929C6.89464 13.4804 7 13.7348 7 14V22C7 22.2652 6.89464 22.5196 6.70711 22.7071C6.51957 22.8946 6.26522 23 6 23Z" fill="black"/>
<path d="M14 23H10C9.73478 23 9.48043 22.8946 9.29289 22.7071C9.10536 22.5196 9 22.2652 9 22V2C9 1.73478 9.10536 1.48043 9.29289 1.29289C9.48043 1.10536 9.73478 1 10 1H14C14.2652 1 14.5196 1.10536 14.7071 1.29289C14.8946 1.48043 15 1.73478 15 2V22C15 22.2652 14.8946 22.5196 14.7071 22.7071C14.5196 22.8946 14.2652 23 14 23Z" fill="black"/>
<path opacity="0.5" d="M22 23H18C17.7348 23 17.4804 22.8946 17.2929 22.7071C17.1054 22.5196 17 22.2652 17 22V10C17 9.73478 17.1054 9.48043 17.2929 9.29289C17.4804 9.10536 17.7348 9 18 9H22C22.2652 9 22.5196 9.10536 22.7071 9.29289C22.8946 9.48043 23 9.73478 23 10V22C23 22.2652 22.8946 22.5196 22.7071 22.7071C22.5196 22.8946 22.2652 23 22 23Z" fill="black"/>
<path opacity="0.25" d="M38 23H34C33.7348 23 33.4804 22.9263 33.2929 22.795C33.1054 22.6637 33 22.4857 33 22.3V16.7C33 16.5143 33.1054 16.3363 33.2929 16.205C33.4804 16.0737 33.7348 16 34 16H38C38.2652 16 38.5196 16.0737 38.7071 16.205C38.8946 16.3363 39 16.5143 39 16.7V22.3C39 22.4857 38.8946 22.6637 38.7071 22.795C38.5196 22.9263 38.2652 23 38 23Z" fill="black"/>
<path d="M30 23H26C25.7348 23 25.4804 22.8946 25.2929 22.7071C25.1054 22.5196 25 22.2652 25 22V2C25 1.73478 25.1054 1.48043 25.2929 1.29289C25.4804 1.10536 25.7348 1 26 1H30C30.2652 1 30.5196 1.10536 30.7071 1.29289C30.8946 1.48043 31 1.73478 31 2V22C31 22.2652 30.8946 22.5196 30.7071 22.7071C30.5196 22.8946 30.2652 23 30 23Z" fill="black"/>
</svg>
